<?xml version="1.0" encoding="iso-8859-1"?>
<!-- Generator: Adobe Illustrator 19.0.0, SVG Export Plug-In . SVG Version: 6.00 Build 0)  -->
<svg version="1.1" id="Layer_1" xmlns="http://www.w3.org/2000/svg" xmlns:xlink="http://www.w3.org/1999/xlink" x="0px" y="0px"
	 viewBox="0 0 511.999 511.999" style="enable-background:new 0 0 511.999 511.999;" xml:space="preserve">
<path style="fill:#48587C;" d="M479.534,466.846c0,20.611-16.821,37.317-37.568,37.317H70.034
	c-20.749,0-37.568-16.707-37.568-37.317V45.154c0-20.61,16.821-37.317,37.568-37.317h371.93c20.747,0,37.568,16.708,37.568,37.317
	v421.692H479.534z"/>
<path style="fill:#46D8BA;" d="M436.671,367.229c0,5.747-4.702,10.449-10.449,10.449H85.778c-5.747,0-10.449-4.702-10.449-10.449
	V64.31c0-5.747,4.702-10.449,10.449-10.449h340.444c5.747,0,10.449,4.702,10.449,10.449L436.671,367.229L436.671,367.229z"/>
<g>
	<path style="opacity:0.2;fill:#FFFFFF;enable-background:new    ;" d="M426.222,53.861h-32.488c5.747,0,10.449,4.702,10.449,10.449
		v302.919c0,5.747-4.702,10.449-10.449,10.449h32.488c5.747,0,10.449-4.702,10.449-10.449V64.31
		C436.671,58.563,431.969,53.861,426.222,53.861z"/>
	<path style="opacity:0.2;fill:#FFFFFF;enable-background:new    ;" d="M441.966,7.837h-33.287
		c20.747,0,37.568,16.708,37.568,37.317v421.69c0,20.611-16.821,37.317-37.568,37.317h33.287c20.747,0,37.568-16.707,37.568-37.317
		V45.154C479.534,24.545,462.713,7.837,441.966,7.837z"/>
</g>
<path style="opacity:0.1;enable-background:new    ;" d="M65.007,466.846V45.154c0-20.61,16.821-37.317,37.568-37.317H70.034
	c-20.749,0-37.568,16.708-37.568,37.317v421.69c0,20.611,16.821,37.317,37.568,37.317h32.541
	C81.828,504.163,65.007,487.456,65.007,466.846z"/>
<path style="fill:#FFFFFF;" d="M364.206,194.931c0-59.759-48.448-108.204-108.206-108.204c-59.758,0-108.206,48.446-108.206,108.204
	c0,40.476,22.228,75.754,55.139,94.311c-23.152,16.565-38.256,43.66-38.256,74.3v14.135h182.647v-14.135
	c0-30.64-15.105-57.735-38.257-74.3C341.977,270.685,364.206,235.407,364.206,194.931z"/>
<path d="M441.966,0H70.034C44.999,0,24.629,20.256,24.629,45.154v421.69c0,24.899,20.368,45.154,45.405,45.154h371.93
	c25.037,0,45.405-20.256,45.405-45.154V45.154C487.371,20.256,467.001,0,441.966,0z M471.697,466.846
	c0,16.257-13.338,29.481-29.732,29.481H70.034c-16.394,0-29.732-13.225-29.732-29.481V45.154c0-16.255,13.338-29.481,29.732-29.481
	h371.93c16.393,0,29.732,13.225,29.732,29.481v421.692H471.697z"/>
<path d="M294.304,207.971c-4.328,0-7.837,3.509-7.837,7.837c0,16.8-13.667,30.468-30.467,30.468s-30.467-13.668-30.467-30.468
	c0-4.328-3.509-7.837-7.837-7.837c-4.328,0-7.837,3.509-7.837,7.837c0,25.442,20.698,46.142,46.141,46.142
	s46.141-20.699,46.141-46.142C302.141,211.48,298.632,207.971,294.304,207.971z"/>
<circle cx="217.119" cy="176.933" r="13.93"/>
<circle cx="294.881" cy="176.933" r="13.928"/>
<path d="M426.222,46.025H85.778c-10.082,0-18.286,8.203-18.286,18.286v302.919c0,10.082,8.203,18.286,18.286,18.286h340.444
	c10.082,0,18.286-8.204,18.286-18.286V64.31C444.508,54.227,436.305,46.025,426.222,46.025z M339.487,369.842H172.515v-6.299
	c0-26.862,13.077-52.255,34.979-67.927c2.179-1.558,3.41-4.121,3.265-6.795s-1.644-5.09-3.977-6.404
	c-31.552-17.791-51.152-51.314-51.152-87.486c0-55.343,45.026-100.368,100.37-100.368s100.37,45.025,100.37,100.368
	c0,36.171-19.6,69.694-51.152,87.486c-2.332,1.316-3.833,3.73-3.976,6.404c-0.144,2.674,1.088,5.237,3.265,6.795
	c21.903,15.672,34.98,41.066,34.98,67.927V369.842z M428.834,367.229c0,1.416-1.196,2.612-2.612,2.612h-71.061v-6.299
	c0-28.09-12.033-54.824-32.657-73.515c30.811-21.589,49.54-57.076,49.54-95.097c0-63.985-52.057-116.041-116.043-116.041
	s-116.043,52.056-116.043,116.041c0,38.021,18.729,73.509,49.541,95.097c-20.624,18.691-32.656,45.425-32.656,73.515v6.299H85.778
	c-1.416,0-2.612-1.196-2.612-2.612V64.31c0-1.416,1.196-2.612,2.612-2.612h340.444c1.416,0,2.612,1.196,2.612,2.612V367.229z"/>
<g>
</g>
<g>
</g>
<g>
</g>
<g>
</g>
<g>
</g>
<g>
</g>
<g>
</g>
<g>
</g>
<g>
</g>
<g>
</g>
<g>
</g>
<g>
</g>
<g>
</g>
<g>
</g>
<g>
</g>
</svg>
