<?xml version="1.0" encoding="iso-8859-1"?>
<!-- Generator: Adobe Illustrator 19.0.0, SVG Export Plug-In . SVG Version: 6.00 Build 0)  -->
<svg version="1.1" id="Layer_1" xmlns="http://www.w3.org/2000/svg" xmlns:xlink="http://www.w3.org/1999/xlink" x="0px" y="0px"
	 viewBox="0 0 512 512" style="enable-background:new 0 0 512 512;" xml:space="preserve">
<path style="fill:#E2E9E3;" d="M504.163,416.288c0,18.315-14.815,33.163-33.09,33.163H40.924c-18.273,0-33.088-14.848-33.088-33.163
	V95.712c0-18.315,14.815-33.163,33.088-33.163h430.149c18.275,0,33.09,14.847,33.09,33.163L504.163,416.288L504.163,416.288z"/>
<path style="opacity:0.2;fill:#FFFFFF;enable-background:new    ;" d="M471.073,62.549h-32.739c18.275,0,33.09,14.847,33.09,33.163
	v320.577c0,18.315-14.815,33.163-33.09,33.163h32.739c18.275,0,33.09-14.848,33.09-33.163V95.712
	C504.163,77.397,489.349,62.549,471.073,62.549z"/>
<path style="fill:#46D8BA;" d="M290.482,436.521c0,7.142-5.79,12.931-12.931,12.931h-43.102c-7.143,0-12.931-5.789-12.931-12.931
	l0,0c0-7.142,5.788-12.931,12.931-12.931h43.102C284.692,423.59,290.482,429.379,290.482,436.521L290.482,436.521z"/>
<circle style="fill:#384463;" cx="256" cy="86.727" r="11.494"/>
<path style="fill:#48587C;" d="M60.082,401.197c-5.747,0-10.449-4.702-10.449-10.449V121.252c0-5.747,4.702-10.449,10.449-10.449
	h391.837c5.747,0,10.449,4.702,10.449,10.449v269.496c0,5.747-4.702,10.449-10.449,10.449L60.082,401.197L60.082,401.197z"/>
<rect x="440.424" y="110.801" style="opacity:0.2;fill:#FFFFFF;enable-background:new    ;" width="21.943" height="290.398"/>
<rect x="49.633" y="110.801" style="opacity:0.1;enable-background:new    ;" width="31.869" height="290.398"/>
<path style="fill:#46D8BA;" d="M49.633,135.749c0,5.747,4.702,10.449,10.449,10.449h391.837c5.747,0,10.449-4.702,10.449-10.449
	v-14.497c0-5.747-4.702-10.449-10.449-10.449H60.082c-5.747,0-10.449,4.702-10.449,10.449V135.749z"/>
<circle style="fill:#384463;" cx="256" cy="86.727" r="11.494"/>
<path style="fill:#E0A089;" d="M306.907,334.582c0,6.808-5.517,12.325-12.325,12.325H122.039c-6.809,0-12.325-5.517-12.325-12.325
	v-49.298c0-6.806,5.516-12.325,12.325-12.325h172.544c6.808,0,12.325,5.518,12.325,12.325V334.582z"/>
<path style="fill:#789DB0;" d="M402.286,225.698c0,9.233-7.485,16.718-16.718,16.718H126.433c-9.234,0-16.718-7.486-16.718-16.718
	V202.71c0-9.233,7.485-16.718,16.718-16.718h259.135c9.234,0,16.718,7.486,16.718,16.718V225.698z"/>
<circle cx="256" cy="86.727" r="11.494"/>
<path d="M471.073,54.712H40.924C18.358,54.712,0,73.104,0,95.712v320.577c0,22.607,18.358,41,40.924,41h193.525h43.102h193.522
	c22.568,0,40.927-18.392,40.927-41V95.712C512,73.104,493.641,54.712,471.073,54.712z M277.551,441.615h-43.102
	c-2.809,0-5.094-2.285-5.094-5.094c0-2.809,2.285-5.094,5.094-5.094h43.102c2.809,0,5.094,2.285,5.094,5.094
	C282.645,439.329,280.36,441.615,277.551,441.615z M496.327,416.288c0,13.965-11.329,25.326-25.253,25.326H297.66
	c0.414-1.633,0.658-3.333,0.658-5.094c0-11.451-9.316-20.767-20.767-20.767h-43.102c-11.451,0-20.767,9.316-20.767,20.767
	c0,1.761,0.243,3.461,0.658,5.094H40.924c-13.923,0-25.251-11.361-25.251-25.326V95.712c0-13.965,11.328-25.326,25.251-25.326
	h430.149c13.924,0,25.253,11.361,25.253,25.326L496.327,416.288L496.327,416.288z"/>
<path d="M122.039,354.743h172.544c11.118,0,20.161-9.045,20.161-20.161v-49.298c0-11.118-9.044-20.161-20.161-20.161H122.039
	c-11.118,0-20.161,9.045-20.161,20.161v49.298C101.878,345.698,110.921,354.743,122.039,354.743z M117.551,285.283
	c0-2.475,2.014-4.488,4.488-4.488h172.544c2.474,0,4.488,2.014,4.488,4.488v49.298c0,2.474-2.014,4.488-4.488,4.488H122.039
	c-2.474,0-4.488-2.014-4.488-4.488L117.551,285.283L117.551,285.283z"/>
<path d="M402.286,266.971h-69.488c-4.329,0-7.837,3.509-7.837,7.837c0,4.328,3.508,7.837,7.837,7.837h69.488
	c4.329,0,7.837-3.509,7.837-7.837C410.122,270.48,406.615,266.971,402.286,266.971z"/>
<path d="M402.286,301.453h-69.488c-4.329,0-7.837,3.509-7.837,7.837c0,4.328,3.508,7.837,7.837,7.837h69.488
	c4.329,0,7.837-3.509,7.837-7.837C410.122,304.962,406.615,301.453,402.286,301.453z"/>
<path d="M402.286,335.935h-69.488c-4.329,0-7.837,3.509-7.837,7.837c0,4.328,3.508,7.837,7.837,7.837h69.488
	c4.329,0,7.837-3.509,7.837-7.837C410.122,339.443,406.615,335.935,402.286,335.935z"/>
<path d="M451.918,102.966H60.082c-10.082,0-18.286,8.203-18.286,18.286v269.496c0,10.082,8.203,18.286,18.286,18.286h391.837
	c10.082,0,18.286-8.204,18.286-18.286V121.252C470.204,111.17,462.001,102.966,451.918,102.966z M454.531,390.748
	c0,1.416-1.196,2.612-2.612,2.612H60.082c-1.416,0-2.612-1.196-2.612-2.612V154.035h397.061V390.748z M454.531,138.361H57.469
	v-17.109c0-1.416,1.196-2.612,2.612-2.612h391.837c1.416,0,2.612,1.196,2.612,2.612V138.361z"/>
<path d="M120.557,250.253h270.886c10.3,0,18.68-8.38,18.68-18.68v-34.739c0-10.3-8.38-18.68-18.68-18.68H120.557
	c-10.3,0-18.68,8.38-18.68,18.68v34.739C101.878,241.873,110.258,250.253,120.557,250.253z M117.551,196.835
	c0-1.657,1.349-3.006,3.006-3.006h270.886c1.657,0,3.006,1.349,3.006,3.006v34.739c0,1.657-1.349,3.006-3.006,3.006H120.557
	c-1.657,0-3.006-1.349-3.006-3.006V196.835z"/>
<g>
</g>
<g>
</g>
<g>
</g>
<g>
</g>
<g>
</g>
<g>
</g>
<g>
</g>
<g>
</g>
<g>
</g>
<g>
</g>
<g>
</g>
<g>
</g>
<g>
</g>
<g>
</g>
<g>
</g>
</svg>
