<?xml version="1.0" encoding="iso-8859-1"?>
<!-- Generator: Adobe Illustrator 19.0.0, SVG Export Plug-In . SVG Version: 6.00 Build 0)  -->
<svg version="1.1" id="Layer_1" xmlns="http://www.w3.org/2000/svg" xmlns:xlink="http://www.w3.org/1999/xlink" x="0px" y="0px"
	 viewBox="0 0 512 512" style="enable-background:new 0 0 512 512;" xml:space="preserve">
<path style="fill:#48587C;" d="M257.312,376.588l-105.112,104.48c-28.98,28.805-76.132,28.805-105.114,0l-17.517-17.413
	c-28.978-28.804-28.978-75.676,0-104.479l105.114-104.481c28.978-28.806,76.131-28.806,105.112,0l17.52,17.414
	c14.038,13.954,21.769,32.504,21.769,52.239C279.084,344.082,271.352,362.635,257.312,376.588z M64.608,394.001
	c-9.66,9.603-9.66,25.225,0,34.827l17.519,17.412c9.66,9.602,25.377,9.602,35.038,0l105.112-104.479
	c4.68-4.651,7.257-10.837,7.257-17.414c0-6.578-2.577-12.76-7.255-17.41l-17.522-17.416c-9.658-9.603-25.374-9.603-35.035,0
	L64.608,394.001z"/>
<path style="opacity:0.1;enable-background:new    ;" d="M173.096,460.175c-14.039,13.955-32.704,21.639-52.556,21.639
	c-19.854,0-38.518-7.684-52.557-21.641L50.465,442.76c-14.041-13.954-21.77-32.504-21.77-52.239
	c0-18.511,6.805-35.984,19.234-49.595L29.606,359.14c-14.037,13.953-21.769,32.507-21.769,52.241
	c0,19.735,7.729,38.286,21.77,52.239l17.517,17.412c14.039,13.957,32.703,21.641,52.557,21.641c19.852,0,38.517-7.684,52.556-21.639
	L173.096,460.175z"/>
<path id="SVGCleanerId_0" style="fill:#48587C;" d="M482.428,152.825L377.316,257.307c-14.038,13.955-32.704,21.639-52.556,21.639
	c-19.854,0-38.518-7.684-52.557-21.641l-17.517-17.412c-14.041-13.954-21.77-32.504-21.77-52.239
	c0-19.734,7.732-38.288,21.77-52.241l105.112-104.48c28.978-28.805,76.132-28.805,105.112,0l17.52,17.413
	C511.409,77.15,511.409,124.021,482.428,152.825z M289.722,170.239c-4.68,4.651-7.256,10.837-7.256,17.414
	c0,6.578,2.577,12.76,7.256,17.411l17.52,17.414c4.68,4.652,10.901,7.214,17.519,7.214c6.617,0,12.84-2.562,17.519-7.212
	l105.113-104.48c9.66-9.604,9.66-25.226-0.001-34.829L429.873,65.76c-9.66-9.603-25.376-9.603-35.038-0.001L289.722,170.239z"/>
<g>
	<path id="SVGCleanerId_0_1_" style="fill:#48587C;" d="M482.428,152.825L377.316,257.307
		c-14.038,13.955-32.704,21.639-52.556,21.639c-19.854,0-38.518-7.684-52.557-21.641l-17.517-17.412
		c-14.041-13.954-21.77-32.504-21.77-52.239c0-19.734,7.732-38.288,21.77-52.241l105.112-104.48
		c28.978-28.805,76.132-28.805,105.112,0l17.52,17.413C511.409,77.15,511.409,124.021,482.428,152.825z M289.722,170.239
		c-4.68,4.651-7.256,10.837-7.256,17.414c0,6.578,2.577,12.76,7.256,17.411l17.52,17.414c4.68,4.652,10.901,7.214,17.519,7.214
		c6.617,0,12.84-2.562,17.519-7.212l105.113-104.48c9.66-9.604,9.66-25.226-0.001-34.829L429.873,65.76
		c-9.66-9.603-25.376-9.603-35.038-0.001L289.722,170.239z"/>
</g>
<path style="opacity:0.1;enable-background:new    ;" d="M398.251,236.285c-14.012,13.983-32.662,21.703-52.514,21.741
	c-19.854,0.04-38.534-7.608-52.599-21.537l-17.551-17.378c-14.067-13.925-21.834-32.461-21.873-52.196
	c-0.037-18.511,6.734-35.997,19.137-49.633l-18.288,18.249c-14.011,13.981-21.707,32.55-21.668,52.284
	c0.039,19.735,7.804,38.27,21.873,52.196l17.55,17.378c14.066,13.93,32.745,21.576,52.599,21.537
	c19.852-0.039,38.502-7.759,52.514-21.741L398.251,236.285z"/>
<path style="fill:#789DB0;" d="M349.285,194.618L194.247,348.727c-9.677,9.616-25.362,9.616-35.038,0
	c-9.676-9.617-9.676-25.21,0-34.827L314.25,159.792c9.675-9.617,25.361-9.617,35.035,0
	C358.962,169.409,358.962,185.002,349.285,194.618z"/>
<path style="opacity:0.2;fill:#FFFFFF;enable-background:new    ;" d="M349.285,159.792c-9.675-9.617-25.361-9.617-35.035,0
	l-32.625,32.763c9.674-9.617,25.362-9.617,35.034,0c8.896,8.841,9.591,22.718,2.132,32.374l30.494-30.31
	C358.962,185.002,358.962,169.409,349.285,159.792z"/>
<path style="opacity:0.1;enable-background:new    ;" d="M192.204,316.313c-9.676-9.617-9.676-25.21,0-34.827L159.209,313.9
	c-9.676,9.617-9.676,25.21,0,34.827c9.676,9.616,25.361,9.616,35.038,0l30.346-30.163
	C214.885,325.831,201.043,325.098,192.204,316.313z"/>
<path d="M487.953,42.787l-17.519-17.413C454.94,9.973,434.313,1.492,412.354,1.492c-21.961,0-42.587,8.481-58.081,23.882
	l-105.112,104.48c-15.53,15.436-24.083,35.962-24.083,57.799c0,14.064,3.573,27.571,10.25,39.534l-8.308,8.258
	c-12.031-6.639-25.623-10.192-39.783-10.192c-21.96,0-42.586,8.482-58.08,23.883L24.046,353.618
	C8.539,369.03-0.001,389.557,0,411.415c0,21.858,8.539,42.385,24.045,57.797l17.518,17.413
	c15.495,15.401,36.121,23.882,58.081,23.882s42.587-8.481,58.081-23.882l105.111-104.48c15.53-15.435,24.084-35.962,24.084-57.8
	c0-15.801-4.507-30.9-12.871-43.894l6.538-6.498c13.075,8.335,28.271,12.827,44.173,12.827c21.938,0,42.565-8.494,58.081-23.918
	l105.113-104.481C503.46,142.971,512,122.444,512,100.586S503.46,58.2,487.953,42.787z M354.811,154.234
	c-6.158-6.121-14.34-9.492-23.043-9.492c-1.965,0-3.902,0.181-5.798,0.518l74.389-73.943c3.194-3.174,7.453-4.923,11.993-4.923
	c4.54,0,8.801,1.748,11.994,4.924l17.518,17.412c3.182,3.162,4.934,7.373,4.934,11.855c0,4.484-1.752,8.695-4.933,11.858
	l-82.402,81.906c3.197-5.096,4.915-10.986,4.915-17.144C364.381,168.525,360.982,160.366,354.811,154.234z M319.774,165.349
	c3.201-3.182,7.461-4.934,11.992-4.934c4.534,0,8.793,1.752,11.994,4.934c3.189,3.17,4.944,7.38,4.944,11.856
	c0,4.475-1.756,8.684-4.944,11.854L188.723,343.168c-3.203,3.182-7.462,4.934-11.995,4.934c-4.533,0-8.793-1.752-11.994-4.934
	c-3.188-3.169-4.944-7.38-4.944-11.855c0-4.476,1.756-8.686,4.944-11.855L319.774,165.349z M153.685,354.285
	c6.158,6.12,14.341,9.491,23.043,9.491c6.166,0,12.069-1.7,17.178-4.865l-82.266,81.772c-3.194,3.174-7.453,4.923-11.994,4.923
	c-4.541,0-8.8-1.748-11.994-4.923l-17.518-17.411c-3.182-3.163-4.933-7.374-4.933-11.856c0-4.483,1.751-8.694,4.933-11.855
	l74.512-74.062c-0.344,1.901-0.528,3.844-0.528,5.816C144.115,339.994,147.513,348.151,153.685,354.285z M271.247,324.347
	c0,17.633-6.91,34.211-19.459,46.683l-105.111,104.48c-12.539,12.462-29.24,19.325-47.032,19.325
	c-17.79,0-34.494-6.863-47.032-19.325l-17.518-17.413c-12.524-12.449-19.422-29.027-19.422-46.682
	c-0.001-17.655,6.897-34.233,19.422-46.682l105.114-104.482c12.537-12.462,29.239-19.325,47.03-19.325
	c9.875,0,19.405,2.134,28.081,6.151l-27.591,27.424c-0.164-0.002-0.326-0.019-0.49-0.019c-8.708,0-16.892,3.367-23.043,9.48
	L59.083,388.443c-6.163,6.126-9.557,14.285-9.557,22.971c0,8.687,3.394,16.846,9.557,22.972l17.519,17.412
	c6.15,6.114,14.334,9.48,23.043,9.48s16.894-3.367,23.043-9.48l105.11-104.478c6.171-6.132,9.57-14.291,9.57-22.973
	c0-2.288-0.252-4.537-0.715-6.725l25.983-25.828C268.255,301.611,271.247,312.751,271.247,324.347z M476.904,147.267
	L371.791,251.749c-12.56,12.484-29.262,19.36-47.032,19.36c-11.66,0-22.859-2.964-32.73-8.528l25.928-25.771
	c2.212,0.467,4.487,0.721,6.803,0.721c8.702,0,16.885-3.37,23.043-9.491l105.114-104.481c6.163-6.127,9.557-14.286,9.556-22.973
	c0-8.686-3.395-16.845-9.558-22.971l-17.518-17.412c-6.151-6.114-14.335-9.48-23.044-9.48s-16.892,3.367-23.043,9.479
	l-105.113,104.48c-6.17,6.133-9.568,14.291-9.568,22.972c0,0.153,0.016,0.301,0.018,0.452l-27.657,27.491
	c-4.073-8.637-6.237-18.122-6.237-27.944c0-17.632,6.91-34.211,19.458-46.683l105.112-104.48
	c12.538-12.462,29.239-19.325,47.032-19.325c17.79,0,34.493,6.863,47.031,19.325l17.52,17.413
	c12.523,12.45,19.422,29.028,19.422,46.683S489.428,134.817,476.904,147.267z"/>
<g>
</g>
<g>
</g>
<g>
</g>
<g>
</g>
<g>
</g>
<g>
</g>
<g>
</g>
<g>
</g>
<g>
</g>
<g>
</g>
<g>
</g>
<g>
</g>
<g>
</g>
<g>
</g>
<g>
</g>
</svg>
