<?xml version="1.0" encoding="iso-8859-1"?>
<!-- Generator: Adobe Illustrator 19.0.0, SVG Export Plug-In . SVG Version: 6.00 Build 0)  -->
<svg version="1.1" id="Layer_1" xmlns="http://www.w3.org/2000/svg" xmlns:xlink="http://www.w3.org/1999/xlink" x="0px" y="0px"
	 viewBox="0 0 512 512" style="enable-background:new 0 0 512 512;" xml:space="preserve">
<path style="fill:#46D8BA;" d="M484.035,249.272c0,9.534-7.762,17.263-17.336,17.263h-43.337c-9.573,0-17.335-7.728-17.335-17.263
	v-45.748c0-9.535,7.762-17.263,17.335-17.263h43.337c9.574,0,17.336,7.728,17.336,17.263V249.272z"/>
<path style="opacity:0.2;fill:#FFFFFF;enable-background:new    ;" d="M466.701,186.261h-17.831c9.574,0,17.336,7.728,17.336,17.263
	v45.748c0,9.534-7.762,17.263-17.336,17.263h17.831c9.574,0,17.336-7.728,17.336-17.263v-45.748
	C484.035,193.989,476.275,186.261,466.701,186.261z"/>
<path style="fill:#FCB63E;" d="M484.035,184.395c0,9.534-7.762,17.263-17.336,17.263h-43.337c-9.573,0-17.335-7.728-17.335-17.263
	v-45.748c0-9.535,7.762-17.263,17.335-17.263h43.337c9.574,0,17.336,7.728,17.336,17.263V184.395z"/>
<path style="opacity:0.2;fill:#FFFFFF;enable-background:new    ;" d="M466.701,121.384h-15.921c9.574,0,17.336,7.728,17.336,17.263
	v45.748c0,9.534-7.762,17.263-17.336,17.263h15.921c9.574,0,17.336-7.728,17.336-17.263v-45.748
	C484.035,129.112,476.275,121.384,466.701,121.384z"/>
<path style="fill:#CE544C;" d="M484.035,118.877c0,9.535-7.762,17.262-17.336,17.262h-43.337c-9.573,0-17.335-7.727-17.335-17.262
	V73.128c0-9.534,7.762-17.262,17.335-17.262h43.337c9.574,0,17.336,7.728,17.336,17.262V118.877z"/>
<path style="opacity:0.2;fill:#FFFFFF;enable-background:new    ;" d="M466.701,55.867h-14.876c9.574,0,17.336,7.728,17.336,17.262
	v45.748c0,9.535-7.762,17.262-17.336,17.262h14.876c9.574,0,17.336-7.727,17.336-17.262V73.128
	C484.035,63.595,476.275,55.867,466.701,55.867z"/>
<path style="fill:#DFA95E;" d="M446.421,457.34c0,25.86-21.051,46.823-47.018,46.823h-296.21c-25.968,0-47.018-20.964-47.018-46.823
	V54.661c0-25.86,21.051-46.824,47.018-46.824h296.21c25.968,0,47.018,20.964,47.018,46.824V457.34z"/>
<path style="opacity:0.2;fill:#FFFFFF;enable-background:new    ;" d="M399.403,7.837h-43.636c25.968,0,47.018,20.964,47.018,46.824
	v402.68c0,25.86-21.051,46.823-47.018,46.823h43.636c25.968,0,47.018-20.964,47.018-46.823V54.661
	C446.421,28.801,425.371,7.837,399.403,7.837z"/>
<path style="opacity:0.1;enable-background:new    ;" d="M102.398,504.163h43.636c-25.968,0-47.018-20.964-47.018-46.823V54.661
	c0-25.86,21.051-46.824,47.018-46.824h-43.636c-25.968,0-47.018,20.964-47.018,46.824v402.68
	C55.38,483.201,76.43,504.163,102.398,504.163z"/>
<g>
	<path style="fill:#BA805C;" d="M87.912,59.928c0,7.757-6.315,14.047-14.106,14.047H42.07c-7.79,0-14.105-6.29-14.105-14.047l0,0
		c0-7.757,6.315-14.047,14.105-14.047h31.737C81.597,45.88,87.912,52.171,87.912,59.928L87.912,59.928z"/>
	<path style="fill:#BA805C;" d="M87.912,114.945c0,7.757-6.315,14.047-14.106,14.047H42.07c-7.79,0-14.105-6.29-14.105-14.047l0,0
		c0-7.757,6.315-14.047,14.105-14.047h31.737C81.597,100.898,87.912,107.188,87.912,114.945L87.912,114.945z"/>
	<path style="fill:#BA805C;" d="M87.912,169.962c0,7.757-6.315,14.047-14.106,14.047H42.07c-7.79,0-14.105-6.29-14.105-14.047l0,0
		c0-7.757,6.315-14.047,14.105-14.047h31.737C81.597,155.915,87.912,162.205,87.912,169.962L87.912,169.962z"/>
	<path style="fill:#BA805C;" d="M87.912,224.98c0,7.757-6.315,14.047-14.106,14.047H42.07c-7.79,0-14.105-6.29-14.105-14.047l0,0
		c0-7.757,6.315-14.047,14.105-14.047h31.737C81.597,210.932,87.912,217.223,87.912,224.98L87.912,224.98z"/>
	<path style="fill:#BA805C;" d="M87.912,279.997c0,7.757-6.315,14.047-14.106,14.047H42.07c-7.79,0-14.105-6.29-14.105-14.047l0,0
		c0-7.757,6.315-14.047,14.105-14.047h31.737C81.597,265.951,87.912,272.24,87.912,279.997L87.912,279.997z"/>
	<path style="fill:#BA805C;" d="M87.912,335.014c0,7.757-6.315,14.047-14.106,14.047H42.07c-7.79,0-14.105-6.29-14.105-14.047l0,0
		c0-7.757,6.315-14.047,14.105-14.047h31.737C81.597,320.968,87.912,327.257,87.912,335.014L87.912,335.014z"/>
	<path style="fill:#BA805C;" d="M87.912,390.031c0,7.757-6.315,14.047-14.106,14.047H42.07c-7.79,0-14.105-6.29-14.105-14.047l0,0
		c0-7.757,6.315-14.047,14.105-14.047h31.737C81.597,375.985,87.912,382.275,87.912,390.031L87.912,390.031z"/>
	<path style="fill:#BA805C;" d="M87.912,445.049c0,7.757-6.315,14.047-14.106,14.047H42.07c-7.79,0-14.105-6.29-14.105-14.047l0,0
		c0-7.757,6.315-14.047,14.105-14.047h31.737C81.597,431.002,87.912,437.292,87.912,445.049L87.912,445.049z"/>
</g>
<g>
	<path style="fill:#F9F9F9;" d="M370.017,393.85c0,12.437-10.124,22.52-22.614,22.52H155.191c-12.489,0-22.614-10.081-22.614-22.52
		v-73.189c0-12.437,10.125-22.52,22.614-22.52h192.212c12.489,0,22.614,10.081,22.614,22.52V393.85z"/>
	<path style="fill:#F9F9F9;" d="M370.017,239.612c0,9.051-7.368,16.388-16.456,16.388H149.035c-9.089,0-16.456-7.336-16.456-16.388
		l0,0c0-9.052,7.368-16.389,16.456-16.389h204.526C362.65,223.224,370.017,230.56,370.017,239.612L370.017,239.612z"/>
</g>
<path style="opacity:0.1;enable-background:new    ;" d="M164.12,393.85v-73.189c0-12.437,10.124-22.52,22.614-22.52h-31.542
	c-12.489,0-22.614,10.081-22.614,22.52v73.189c0,12.437,10.125,22.52,22.614,22.52h31.542
	C174.245,416.369,164.12,406.288,164.12,393.85z"/>
<path style="opacity:0.1;enable-background:new    ;" d="M165.37,239.612c0-9.052,7.368-16.389,16.456-16.389h-32.791
	c-9.089,0-16.456,7.336-16.456,16.389c0,9.051,7.368,16.388,16.456,16.388h32.791C172.736,256,165.37,248.664,165.37,239.612z"/>
<path d="M491.872,73.128c0-13.84-11.292-25.098-25.173-25.098h-12.861C450.544,21.008,427.396,0,399.403,0h-296.21
	C78.76,0,58.025,16.006,50.951,38.044H42.07c-12.099,0-21.942,9.818-21.942,21.883c0,12.066,9.843,21.883,21.942,21.883h6.268v11.25
	H42.07c-12.099,0-21.942,9.818-21.942,21.883c0,12.066,9.843,21.883,21.942,21.883h6.268v11.25H42.07
	c-12.099,0-21.942,9.817-21.942,21.883c0,12.066,9.843,21.883,21.942,21.883h6.268v11.25H42.07
	c-12.099,0-21.942,9.818-21.942,21.883c0,12.065,9.843,21.883,21.942,21.883h6.268v11.25H42.07
	c-12.099,0-21.942,9.817-21.942,21.883c0,12.066,9.843,21.883,21.942,21.883h6.268v11.25H42.07
	c-12.099,0-21.942,9.817-21.942,21.883c0,12.066,9.843,21.883,21.942,21.883h6.268v11.25H42.07
	c-12.099,0-21.942,9.818-21.942,21.883c0,12.066,9.843,21.883,21.942,21.883h6.268v11.25H42.07
	c-12.099,0-21.942,9.818-21.942,21.883c0,12.066,9.843,21.883,21.942,21.883h7.137C53.769,492.513,76.232,512,103.193,512h296.21
	c30.247,0,54.855-24.521,54.855-54.66V274.371h12.442c13.88,0,25.173-11.259,25.173-25.1v-45.748c0-3.383-0.682-6.609-1.907-9.556
	c1.227-2.952,1.907-6.185,1.907-9.573v-45.748c0-3.508-0.73-6.846-2.041-9.88c1.311-3.036,2.041-6.379,2.041-9.891L491.872,73.128
	L491.872,73.128z M42.07,66.138c-3.457,0-6.268-2.786-6.268-6.21c0-3.424,2.812-6.21,6.268-6.21h31.737
	c3.458,0,6.269,2.786,6.269,6.21c0,3.424-2.812,6.21-6.269,6.21H42.07z M42.07,121.155c-3.457,0-6.268-2.786-6.268-6.21
	s2.812-6.21,6.268-6.21h31.737c3.458,0,6.269,2.786,6.269,6.21s-2.812,6.21-6.269,6.21H42.07z M42.07,176.172
	c-3.457,0-6.268-2.786-6.268-6.21c0-3.424,2.812-6.21,6.268-6.21h31.737c3.458,0,6.269,2.786,6.269,6.21
	c0,3.424-2.812,6.21-6.269,6.21H42.07z M42.07,231.19c-3.457,0-6.268-2.786-6.268-6.21c0-3.424,2.812-6.21,6.268-6.21h31.737
	c3.458,0,6.269,2.786,6.269,6.21c0,3.424-2.812,6.21-6.269,6.21H42.07z M42.07,286.207c-3.457,0-6.268-2.786-6.268-6.21
	c0-3.424,2.812-6.21,6.268-6.21h31.737c3.458,0,6.269,2.786,6.269,6.21c0,3.424-2.812,6.21-6.269,6.21H42.07z M42.07,341.225
	c-3.457,0-6.268-2.786-6.268-6.21s2.812-6.21,6.268-6.21h31.737c3.458,0,6.269,2.786,6.269,6.21s-2.812,6.21-6.269,6.21H42.07z
	 M42.07,396.242c-3.457,0-6.268-2.786-6.268-6.21s2.812-6.21,6.268-6.21h31.737c3.458,0,6.269,2.786,6.269,6.21
	s-2.812,6.21-6.269,6.21H42.07z M42.07,451.259c-3.457,0-6.268-2.786-6.268-6.21c0-3.424,2.812-6.21,6.268-6.21h31.737
	c3.458,0,6.269,2.786,6.269,6.21c0,3.424-2.812,6.21-6.269,6.21H42.07z M438.584,457.34c0,21.497-17.576,38.986-39.182,38.986
	h-296.21c-18.278,0-33.663-12.521-37.97-29.394h8.583c12.099,0,21.943-9.818,21.943-21.883c0-12.066-9.844-21.883-21.943-21.883
	h-9.795v-11.25h9.795c12.099,0,21.943-9.817,21.943-21.883c0-12.066-9.844-21.883-21.943-21.883h-9.795v-11.25h9.795
	c12.099,0,21.943-9.818,21.943-21.883c0-12.066-9.844-21.883-21.943-21.883h-9.795v-11.25h9.795
	c12.099,0,21.943-9.818,21.943-21.883c0-12.066-9.844-21.883-21.943-21.883h-9.795v-11.25h9.795
	c12.099,0,21.943-9.818,21.943-21.883c0-12.065-9.844-21.883-21.943-21.883h-9.795v-11.25h9.795
	c12.099,0,21.943-9.817,21.943-21.883c0-12.066-9.844-21.883-21.943-21.883h-9.795v-11.25h9.795
	c12.099,0,21.943-9.818,21.943-21.883c0-12.066-9.844-21.883-21.943-21.883h-9.795V81.811h9.795
	c12.099,0,21.943-9.818,21.943-21.883c0-12.066-9.844-21.883-21.943-21.883h-6.041c6.279-13.209,19.793-22.371,35.427-22.371h296.21
	c21.605,0,39.182,17.49,39.182,38.987V457.34z M476.199,249.272c0,5.197-4.261,9.426-9.499,9.426h-12.442v-49.204h12.442
	c3.36,0,6.565-0.666,9.499-1.861V249.272z M476.199,184.395c0,5.197-4.261,9.426-9.499,9.426h-12.442v-49.845h12.442
	c3.36,0,6.565-0.666,9.499-1.861V184.395z M476.199,118.877c0,5.197-4.261,9.426-9.499,9.426h-12.442v-64.6h12.442
	c5.238,0,9.499,4.229,9.499,9.425V118.877z"/>
<path d="M347.405,290.603H155.191c-16.789,0-30.45,13.566-30.45,30.241v72.82c0,16.676,13.66,30.242,30.45,30.242h192.212
	c16.789,0,30.45-13.567,30.45-30.242v-72.82C377.854,304.17,364.194,290.603,347.405,290.603z M362.18,393.665
	c0,8.034-6.629,14.569-14.777,14.569H155.191c-8.148,0-14.777-6.536-14.777-14.569v-72.82c0-8.033,6.629-14.568,14.777-14.568
	h192.212c8.148,0,14.777,6.536,14.777,14.568V393.665z"/>
<path d="M353.561,215.387H149.035c-13.395,0-24.293,10.867-24.293,24.226c0,13.357,10.898,24.225,24.293,24.225h204.526
	c13.395,0,24.293-10.867,24.293-24.225C377.854,226.254,366.957,215.387,353.561,215.387z M353.561,248.163H149.035
	c-4.753,0-8.619-3.836-8.619-8.551s3.866-8.552,8.619-8.552h204.526c4.753,0,8.619,3.837,8.619,8.552
	S358.314,248.163,353.561,248.163z"/>
<g>
</g>
<g>
</g>
<g>
</g>
<g>
</g>
<g>
</g>
<g>
</g>
<g>
</g>
<g>
</g>
<g>
</g>
<g>
</g>
<g>
</g>
<g>
</g>
<g>
</g>
<g>
</g>
<g>
</g>
</svg>
