<?xml version="1.0" encoding="iso-8859-1"?>
<!-- Generator: Adobe Illustrator 19.0.0, SVG Export Plug-In . SVG Version: 6.00 Build 0)  -->
<svg version="1.1" id="Layer_1" xmlns="http://www.w3.org/2000/svg" xmlns:xlink="http://www.w3.org/1999/xlink" x="0px" y="0px"
	 viewBox="0 0 512 512" style="enable-background:new 0 0 512 512;" xml:space="preserve">
<g>
	<polygon style="fill:#4FBA6F;" points="194.207,114.759 0,256 194.207,397.241 194.207,300.138 300.138,300.138 300.138,211.862 
		194.207,211.862 	"/>
	<path style="fill:#4FBA6F;" d="M353.103,211.862c-9.71,0-17.655,7.945-17.655,17.655v52.966c0,9.71,7.945,17.655,17.655,17.655
		s17.655-7.945,17.655-17.655v-52.966C370.759,219.807,362.814,211.862,353.103,211.862"/>
	<path style="fill:#4FBA6F;" d="M423.724,211.862c-9.71,0-17.655,7.945-17.655,17.655v52.966c0,9.71,7.945,17.655,17.655,17.655
		c9.71,0,17.655-7.945,17.655-17.655v-52.966C441.379,219.807,433.434,211.862,423.724,211.862"/>
	<path style="fill:#4FBA6F;" d="M494.345,211.862c-9.71,0-17.655,7.945-17.655,17.655v52.966c0,9.71,7.945,17.655,17.655,17.655
		S512,292.193,512,282.483v-52.966C512,219.807,504.055,211.862,494.345,211.862"/>
</g>
<g>
</g>
<g>
</g>
<g>
</g>
<g>
</g>
<g>
</g>
<g>
</g>
<g>
</g>
<g>
</g>
<g>
</g>
<g>
</g>
<g>
</g>
<g>
</g>
<g>
</g>
<g>
</g>
<g>
</g>
</svg>
